<?xml version="1.0" standalone="no"?><!DOCTYPE svg PUBLIC "-//W3C//DTD SVG 1.1//EN" "http://www.w3.org/Graphics/SVG/1.1/DTD/svg11.dtd"><svg t="1611301573122" class="icon" viewBox="0 0 1024 1024" version="1.1" xmlns="http://www.w3.org/2000/svg" p-id="3896" xmlns:xlink="http://www.w3.org/1999/xlink" width="16" height="16"><defs><style type="text/css"></style></defs><path d="M433 97H145c-26.4 0-48 21.6-48 48v288c0 26.4 21.6 48 48 48h288c26.4 0 48-21.6 48-48V145c0-26.4-21.6-48-48-48z m0 312c0 13.2-10.8 24-24 24H169c-13.2 0-24-10.8-24-24V169c0-13.2 10.8-24 24-24h240c13.2 0 24 10.8 24 24v240zM879 97H591c-26.4 0-48 21.6-48 48v288c0 26.4 21.6 48 48 48h288c26.4 0 48-21.6 48-48V145c0-26.4-21.6-48-48-48z m0 312c0 13.2-10.8 24-24 24H615c-13.2 0-24-10.8-24-24V169c0-13.2 10.8-24 24-24h240c13.2 0 24 10.8 24 24v240zM433 543H145c-26.4 0-48 21.6-48 48v288c0 26.4 21.6 48 48 48h288c26.4 0 48-21.6 48-48V591c0-26.4-21.6-48-48-48z m0 312c0 13.2-10.8 24-24 24H169c-13.2 0-24-10.8-24-24V615c0-13.2 10.8-24 24-24h240c13.2 0 24 10.8 24 24v240zM879 543H591c-26.4 0-48 21.6-48 48v288c0 26.4 21.6 48 48 48h288c26.4 0 48-21.6 48-48V591c0-26.4-21.6-48-48-48z m0 312c0 13.2-10.8 24-24 24H615c-13.2 0-24-10.8-24-24V615c0-13.2 10.8-24 24-24h240c13.2 0 24 10.8 24 24v240z" p-id="3897"></path></svg>